<?xml version="1.0" encoding="utf-8"?>
<!-- Generator: Adobe Illustrator 27.0.1, SVG Export Plug-In . SVG Version: 6.00 Build 0)  -->
<svg version="1.1" id="Layer_1" xmlns="http://www.w3.org/2000/svg" xmlns:xlink="http://www.w3.org/1999/xlink" x="0px" y="0px"
	 viewBox="0 0 380.69 85.53" style="enable-background:new 0 0 380.69 85.53;" xml:space="preserve">
<style type="text/css">
	.st0{fill:#6A4C37;}
	.st1{fill:#FFFFFF;}
	.st2{fill:#3F180E;}
	.st3{fill:#694B36;}
</style>
<g>
	<path id="XMLID_288_" class="st0" d="M27.73,48.82c0.16,0.14,0.33,0.28,0.49,0.4c1.95,1.64,2.2,1.59,3.28-0.68
		c0.96-2.02,1.03-2.04,2.79-0.8c2.6,1.83,2.58,1.81,4.44-0.82c0.82-1.15,0.78-2.02-0.45-2.77c-0.37-0.23-0.71-0.47-1.05-0.73
		c-2.23-1.71-2.23-1.71-3.69,0.7c-0.99,1.64-0.98,1.6-2.58,0.37c-0.78-0.61-1.41-1.45-2.3-1.79c-0.44-0.02-0.7,0.14-0.92,0.37
		C25.55,45.12,25.57,46.88,27.73,48.82z"/>
	<path id="XMLID_287_" class="st0" d="M20.61,47.74c0.33-0.51,0.66-0.7,1.31-0.51c1.85,0.54,2.58-0.09,2.53-2.37
		c-0.49-1.86-1.48-3.76-3.33-5.09c-0.77-0.56-1.71-0.37-2.02,0.49c-0.7,1.83-1.03,3.83-0.12,5.65c0.45,0.91,0.3,1.34-0.31,1.88
		c-1.57,1.36-3.22,2.6-4.95,3.76c-0.98,0.64-1.86,1.39-2.79,2.13c-0.24,0.19-0.52,0.47-0.3,0.8c0.24,0.35,0.58,0.14,0.85-0.02
		c1.01-0.58,2.02-1.17,3.03-1.74C16.84,51.41,19.11,50.05,20.61,47.74z"/>
	<path id="XMLID_286_" class="st0" d="M11.4,40.09c0.82-0.58,1.62-1.22,2.47-1.74c3.45-2.13,6.78-4.37,9.01-7.89
		c0.35-0.56,0.73-0.71,1.31-0.37c0.37,0.23,0.78,0.45,1.15,0.02c0.35-0.44,0.59-1.13,0.26-1.48c-1.22-1.24-0.91-2.88-1.27-4.32
		c-0.21-0.77-0.56-1.52-1.45-1.45c-1.38,0.1-1.83,1.29-2.32,2.35c-0.42,0.91-0.94,1.79,0,2.77c1.55,1.62,1.5,1.67-0.09,3.29
		c-2.27,2.34-4.98,4.13-7.51,6.15c-0.91,0.73-1.73,1.57-2.56,2.39c-0.12,0.12-0.17,0.38-0.16,0.58c0,0.07,0.23,0.16,0.38,0.24
		C10.88,40.45,11.14,40.28,11.4,40.09z"/>
	<path id="XMLID_285_" class="st0" d="M24.87,37.65c0.33,0.37,0.68,0.02,0.98-0.19c0.78-0.54,1.62-1.05,2.34-1.67
		c2.46-2.16,5.56-3.62,7.06-6.78c0.26-0.54,0.68-0.61,1.2-0.37c1.1,0.49,1.25-0.3,1.46-1.12c-0.03-0.17-0.03-0.47-0.16-0.56
		c-1.41-0.87-1.24-2.32-1.39-3.68c-0.07-0.51-0.33-1.01-0.61-1.46c-0.63-1.05-1.39-1.03-2.2-0.17c-0.63,0.68-0.82,1.6-1.15,2.44
		c-0.71,1.78-0.56,2.39,1.06,3.24c0.94,0.49,0.84,0.92,0.28,1.57c-1.1,1.31-2.37,2.42-3.68,3.52c-1.66,1.38-3.26,2.77-4.86,4.16
		C24.91,36.84,24.46,37.19,24.87,37.65z"/>
	<path id="XMLID_284_" class="st0" d="M30.49,15.03c0.35,0.16,0.64,0,0.73-0.38c0.24-1.03,0.02-1.92-0.98-2.46
		c-0.99-0.54-1.57-0.02-2.02,0.85c-0.54,1.03-0.31,2.18-0.64,3.52c-1.1-0.84-1.74-1.88-2.81-2.4c-0.56-0.28-1.13-0.8-1.76-0.35
		c-0.61,0.45-0.64,1.2-0.56,1.9c0.09,0.75,0.3,1.69,1.17,1.67c2.07,0,3.14,1.27,4.1,2.81c0.19,0.31,0.45,0.66,0.87,0.58
		c0.54-0.12,0.51-0.63,0.51-1.05c-0.02-1.12-0.14-2.23-0.09-3.35C29.07,15.57,28.9,14.29,30.49,15.03z"/>
	<path id="XMLID_283_" class="st0" d="M36.48,71.35c-0.99,0.24-0.89-0.44-0.68-0.98c0.4-1.03,0.92-2,1.38-3.01
		c0.1-0.23,0.21-0.54-0.09-0.71c-0.28-0.17-0.52,0.05-0.63,0.3c-0.73,1.52-1.76,2.91-2.06,4.6c-0.16,0.92-0.05,1.97,1.03,2.18
		c1.03,0.21,1.34-0.85,1.71-1.59C37.44,71.54,37.35,71.09,36.48,71.35z"/>
	<path id="XMLID_282_" class="st0" d="M126.47,48.75c-0.12-0.42-0.28-0.84,0.14-1.17c0.75-0.58,0.51-1.25,0.14-1.85
		c-0.7-1.13-1.46-2.23-2.23-3.31c-0.3-0.44-0.87-0.78-1.08-0.09c-0.42,1.39-1.32,2.75-0.87,4.29c1.31,4.43,2.18,9.01,4.43,13.12
		c0.28,0.51,0.33,0.96-0.19,1.41c-1.52,1.32-3.42,1.55-5.19,0.58c-2.28-1.25-3.52-3.17-3.71-5.77c-0.1-1.38-0.16-2.77-0.35-4.13
		c-0.4-2.84-0.63-5.72-1.73-8.42c-0.16-0.4-0.3-0.85-0.84-0.84c-0.56,0.02-0.61,0.51-0.77,0.89c-0.8,1.97-0.99,3.9-0.49,6.06
		c0.73,3.14,1.32,6.36,0.56,9.62c-0.64,2.7-3.59,4.81-6.19,4.48c-2.49-0.33-4.2-2.61-4.22-5.59c0-1.18,0.17-2.34,0.51-3.47
		c0.56-1.85,0.82-3.73,1.05-5.65c0.07-0.58,0.03-1.24-0.64-1.5c-0.59-0.23-1.01,0.21-1.38,0.58c-1.01,0.98-1.73,2.16-2.16,3.5
		c-0.64,2.02-1.18,4.08-1.62,6.17c-0.45,2.18-0.82,4.41-2.09,6.33c-1.32,1.99-3.1,1.99-4.39-0.07c-0.37-0.58-0.58-1.25-0.84-1.88
		c-0.89-2.13-0.33-4.29-0.21-6.47c0.24-4.03-0.73-7.6-3.97-10.3c-1.73-1.45-3.07-1.53-4.88-0.17c-1.67,1.25-2.49,3.08-2.74,5.05
		c-0.52,4.2,1.12,5.92,5.35,5.92c0.75,0,1.5,0.03,2.23,0.16c0.58,0.09,1.2,0.26,1.43,0.87c0.24,0.68-0.33,1.06-0.73,1.46
		c-2.21,2.21-4.51,4.39-7.07,6.19c-2.74,1.93-5.65,3.62-9.17,3.75c-3.59,0.12-5.72-2.67-4.72-6.1c0.51-1.73,0.91-3.5,1.17-5.28
		c0.14-0.96,0.42-1.55,1.36-1.9c1.6-0.59,2.61-1.76,3.08-3.42c0.21-0.75,0.45-1.5,1.08-2.14c0.42,0.49,0.45,0.92,0.42,1.43
		c-0.02,0.45-0.16,1.1,0.49,1.15c0.52,0.05,0.54-0.58,0.64-0.96c0.3-1.18,0.52-2.39,0.82-3.57c0.24-1.01-0.05-1.9-0.63-2.72
		c-0.56-0.8-1.13-0.91-1.74-0.03c-0.63,0.87-0.92,1.92-1.36,2.88c-1.39,3.01-4.41,3.36-6.38,0.78c-0.24-0.33-0.4-0.82-0.92-0.75
		c-0.51,0.07-0.54,0.59-0.73,0.96c-1.27,2.39-0.21,4.29,1.05,6.31c1.66,2.65,1.52,3.26-0.66,5.35c-4.08,3.94-8.59,7.13-14.45,7.82
		c-3.85,0.45-6.22-2.18-5.35-5.96c0.17-0.75,0.35-1.17,1.25-0.8c1.53,0.59,3.14,0.52,4.71,0.09c3.8-1.06,6.85-3.35,9.67-5.96
		c3.68-3.4,2.84-10.54-1.55-13c-1.81-1.01-3.71-1.86-5.54-2.81c-1.22-0.63-2.32-1.39-3.29-2.44c0.61-0.3,1.43-0.03,1.48-0.87
		c0.05-0.71-0.59-0.99-1.1-1.24c-1.57-0.78-3.19-1.46-4.76-2.25c-1.81-0.89-1.83-1.1-0.23-2.21C54.13,25.5,62.39,21,71.12,17.41
		c1.66-0.68,3.47-0.99,5.21-1.43c0.7-0.17,1.41,0.03,1.88,0.63c0.52,0.68-0.14,1.17-0.42,1.71c-0.85,1.59-1.85,3.12-2.56,4.77
		c-0.8,1.85-1.5,3.76-1.74,5.79c-0.05,0.47-0.1,1.05,0.56,1.13c0.54,0.07,0.73-0.44,0.8-0.84c0.45-2.58,1.97-4.69,3.12-6.95
		c1.36-2.72,2.7-5.45,2.61-8.59c-0.05-2-0.92-2.84-2.93-2.63c-1.97,0.21-3.85,0.87-5.65,1.66c-6.81,3.01-13.49,6.34-19.8,10.3
		c-3.38,2.13-7.51,3.5-8.87,8.02c-0.44-2.79-0.77-5.47-1.03-8.17c-0.31-3.07-0.52-6.15-1.59-9.08c-0.1-0.3-0.16-0.66-0.52-0.71
		c-0.3-0.05-0.51,0.19-0.59,0.44c-0.59,1.62-1.57,3.15-1.12,5.04c1.46,6.08,1.76,12.3,2.11,18.52c0.24,4.3,0.35,8.61,0.71,12.9
		c0.28,3.29,0.78,6.57,2.81,9.38c0.42,0.59,0.31,1.2,0.19,1.85c-0.31,1.73-0.59,3.47-0.51,5.23c0.3,5.47,3.89,8.19,9.2,6.92
		c3.38-0.82,6.22-2.67,8.9-4.79c1.25-0.99,2.44-2.06,3.97-3.35c-0.19,2.28,0.24,4.03,1.08,5.66c0.98,1.92,2.56,3.08,4.69,3.07
		c2.07-0.03,4.13-0.45,6.01-1.45c3.26-1.73,6.2-3.92,8.87-6.45c1.31-1.24,2.63-2.47,3.96-3.73c0.28,0.85,0.47,1.69,0.8,2.46
		c0.35,0.82,0.75,1.66,1.27,2.39c2.2,3.05,4.93,2.84,6.69-0.51c0.8-1.52,1.17-3.19,1.45-4.88c0.4-2.28,0.92-4.53,2.14-6.53
		c-0.16,0.78-0.31,1.55-0.45,2.34c-0.51,2.65-0.59,5.28,0.44,7.84c0.99,2.47,2.77,3.71,5.42,3.57c2.77-0.16,4.5-1.93,5.87-4.13
		c0.94-1.48,1.24-3.21,1.78-5.21c0.33,0.94,0.54,1.53,0.75,2.13c0.52,1.46,1.24,2.82,2.34,3.96c3.08,3.17,7.49,2.47,9.24-1.59
		c1.53-3.57,1.74-7.23-0.09-10.8C127.37,51.81,126.92,50.28,126.47,48.75z M88.62,52.88c0,0-0.28-0.8-2.07-0.77
		c-1.95,0.03-3.29-0.45-3.12-1.78c0.16-1.32,1.57-1.9,3.52-1.2C88.9,49.83,89.32,51.31,88.62,52.88z M43.45,45.75
		c0-1.92-0.16-3.82-0.26-5.86c0.23-0.78-0.59-2.11,0.35-2.51c0.8-0.35,1.69,0.75,2.35,1.38c3.97,3.78,8.57,6.59,13.52,8.89
		c0.28,0.14,0.56,0.31,0.82,0.49c2.02,1.46,1.99,1.95,0.07,3.52c-2.4,1.99-5,3.59-8.03,4.41c-4.08,1.1-6.87-0.52-7.91-4.67
		C43.9,49.56,43.45,47.7,43.45,45.75z"/>
	<path id="XMLID_281_" class="st0" d="M294.16,24.26c3.43,6.41,7.86,12.11,12.63,17.55c3.45,3.94,6.97,7.82,8.99,12.81
		c0.52,1.29,0.23,2.7,0.91,3.87c0.45,0.78,0.31,1.36-0.09,2.07c-1.52,2.63-3.43,4.9-5.79,6.81c-1.95,1.59-3.89,3.19-5.94,4.64
		c-0.45,0.31-1.17,0.73-0.8,1.39c0.4,0.75,1.05,0.14,1.53-0.07c1.99-0.92,4.03-1.76,5.92-2.84c1.97-1.12,4.15-1.92,5.47-4.03
		c1.81-2.91,2.65-6.13,3.49-9.57c0.35,1.48,0.66,2.84,0.98,4.18c0.23,0.94,0.44,1.95,1.18,2.6c1.74,1.55,1.78,3.1,0.38,4.91
		c-0.58,0.75-1.01,1.66-1.15,2.63c-0.1,0.85,0.16,1.59,0.87,2.11c0.44,0.31,0.94,0.35,1.34,0.02c0.71-0.59,1.24-1.32,1.48-2.25
		c0.09-0.33,0.1-0.66-0.23-0.85c-0.3-0.16-0.51,0.05-0.7,0.23c-0.26,0.24-0.51,0.68-0.91,0.26c-0.31-0.31-0.17-0.71,0.02-1.05
		c0.44-0.73,0.96-1.43,1.32-2.2c0.33-0.71,0.73-0.92,1.5-0.71c1.88,0.51,3.55-0.05,5.21-0.99c1.17-0.66,1.83-1.92,2.96-2.65
		c1.27,2.6,2.88,3.8,4.55,3.36c2.06-0.54,3.55-1.81,4.6-3.9c1.05,2.02,2.39,3.1,4.51,2.63c2.09-0.47,2.7-2.37,3.62-4.06
		c0.61,0.71,1.06,1.38,1.64,1.92c2.04,1.99,4.18,1.81,5.82-0.47c1.92-2.67,2.18-5.77,2.21-8.89c0.07-7.51-1.46-14.9-2.06-22.36
		c-0.21-2.75-0.52-5.49-0.78-8.24c0.12-0.03,0.26-0.05,0.38-0.09c0.16,0.14,0.31,0.28,0.47,0.42c0.4,0.37,0.61,1.24,1.34,0.73
		c0.61-0.4,0.24-1.08,0.05-1.62c-0.59-1.66-1.22-3.31-1.85-4.95c-0.51-1.36-0.73-2.81-1.41-4.1c-0.35-0.64-0.78-0.85-1.13-0.12
		c-0.59,1.29-1.46,2.6-1.24,4.08c0.89,5.77,0.7,11.62,1.6,17.41c0.71,4.64,0.73,9.38,1.34,14.06c0.33,2.6,0.51,5.23,0.7,7.84
		c0.05,0.73,0.12,1.6-0.73,1.95c-0.78,0.31-1.59,0.17-2.3-0.3c-0.84-0.54-1.46-1.25-1.71-2.25c-0.12-0.47-0.24-0.99-0.87-0.98
		c-0.49,0.02-0.7,0.44-0.89,0.84c-0.37,0.77-0.7,1.57-1.12,2.32c-0.77,1.34-2.47,2.09-3.68,1.64c-1.57-0.61-1.46-1.76-0.94-3.05
		c0.12-0.3,0.16-0.66-0.16-0.89c-0.4-0.28-0.77,0-0.98,0.28c-0.75,0.91-1.5,1.81-2.14,2.81c-0.85,1.31-2.11,1.78-3.54,1.9
		c-1.83,0.16-2.86-0.92-2.58-2.68c0.07-0.42,0.33-0.87-0.17-1.15c-0.44-0.23-0.85,0.05-1.17,0.31c-0.89,0.77-1.74,1.59-2.63,2.34
		c-4.13,3.45-8.99,1.74-10.09-3.52c-0.05-0.26-0.1-0.52-0.16-0.78c-0.84-5.21-0.26-10.47-0.71-15.7c-0.58-6.6-0.61-13.26-1.41-19.85
		c-0.26-2.13-0.7-4.22-1.08-6.33c-0.07-0.35-0.16-0.78-0.61-0.87c-0.47-0.09-0.64,0.31-0.78,0.66c-0.56,1.38-1.36,2.74-1.27,4.27
		c0.16,2.67,0.35,5.35,0.66,8c0.98,7.98,1.43,15.98,1.43,24.01c0,2.61-0.45,5.16-1.74,7.53c0.28-2.72-0.1-5.31-1.05-7.88
		c-1.5-4.08-4.22-7.32-7.04-10.46c-3.43-3.83-6.78-7.72-9.81-11.87c-0.99-1.36-1.79-2.86-2.74-4.39c0.77-0.16,1.17,0.14,1.62,0.28
		c0.45,0.14,0.96,0.42,1.27-0.17c0.24-0.47-0.1-0.8-0.42-1.1c-2.35-2.18-4.5-4.58-7.23-6.29c-0.47-0.3-0.91-0.7-1.32,0.03
		c-0.4,0.71-0.1,4.37,0.47,4.97C292.63,21.58,293.43,22.9,294.16,24.26z"/>
	<path id="XMLID_280_" class="st0" d="M137.57,40.12c3.71-2.47,7.49-4.9,10.3-8.47c0.35-0.45,0.68-0.68,1.34-0.47
		c0.92,0.28,1.88-0.71,1.34-1.34c-1.17-1.38-0.91-2.96-1.2-4.48c-0.16-0.78-0.63-1.69-1.59-1.45c-1.31,0.33-1.79,1.55-2.27,2.7
		c-0.38,0.96-0.24,1.88,0.58,2.44c1.29,0.87,1.01,1.52,0.07,2.49c-2.63,2.74-5.8,4.81-8.64,7.28c-0.3,0.26-0.54,0.78-1.03,0.58
		c-0.47-0.19-0.31-0.73-0.4-1.13c-0.75-4.1-0.99-8.23-1.29-12.37c-0.09-1.15-0.49-2.3-0.14-3.59c0.7,0.3,0.89,1.41,1.64,0.91
		c0.61-0.42,0.19-1.2,0-1.78c-0.85-2.68-1.73-5.37-2.63-8.03c-0.16-0.49-0.37-1.1-1.01-1.1c-0.58,0-0.7,0.59-0.89,1.01
		c-0.71,1.71-1.12,3.4-0.89,5.37c0.73,6.45,1.05,12.93,1.83,19.36c1.01,8.23,2.75,16.38,2.34,24.73c-0.02,0.4-0.12,0.96,0.4,1.1
		c0.64,0.17,0.77-0.44,0.94-0.85c1.15-2.82,1.05-5.84,1.24-8.8c0.26-3.96-0.52-7.84-1.12-11.73
		C136.35,41.44,136.59,40.76,137.57,40.12z"/>
	<path id="XMLID_279_" class="st0" d="M38.71,50.98c-0.49,0.14-0.54,0.64-0.63,1.05c-0.37,1.92-0.91,3.75,0.96,5.4
		c1.17,1.03,0.89,1.66-0.54,2.39c-3.47,1.79-5.3,1.29-7.28-2.02c-1.46-2.44-2.61-2.63-4.84-0.84c-2.98,2.39-4.34,5.72-5.28,9.25
		c-0.31,1.15-0.77,2.2-1.5,3.14c-1.06,1.36-2.53,1.45-3.64,0.16c-1.06-1.24-1.81-2.63-1.85-4.3c-0.03-1.38-0.26-2.74-0.05-4.13
		c0.07-0.51,0.26-1.36-0.52-1.45c-0.68-0.07-0.63,0.73-0.71,1.22c-0.17,0.99-0.26,2-0.33,2.58c0.1,3.85,0.61,7.09,3.31,9.58
		c1.78,1.64,3.62,1.48,5-0.45c0.78-1.1,1.29-2.3,1.64-3.61c0.59-2.16,1.34-4.22,2.95-5.91c2.16-2.28,2.89-2.28,4.6,0.35
		c2.49,3.87,7.93,3.8,10.37-0.19c2.37-3.9,1.66-8.03-0.63-11.59C39.48,51.27,39.23,50.84,38.71,50.98z"/>
	<path id="XMLID_278_" class="st0" d="M203.32,15.72c1.18-0.44,1.76-1.31,1.86-2.53c0.12-0.82-0.24-1.1-1.01-0.85
		c-0.56,0.17-1.12,0.37-1.66,0.59c-5.3,2.21-10.58,4.43-15.88,6.66c-3.36,1.43-6.8,2.72-10.09,4.36c-2.67,1.32-5.3,2.72-8.03,3.85
		c-5.8,2.4-11.27,5.47-16.76,8.49c-0.96,0.52-1.97,1.1-2.34,2.28c-0.17,0.56-0.56,1.17-0.1,1.66c0.56,0.61,1.08-0.07,1.55-0.31
		c3.28-1.78,6.43-3.76,9.78-5.35c7.2-3.38,14.32-6.94,21.7-9.93C189.41,21.77,196.19,18.35,203.32,15.72z"/>
	<path id="XMLID_277_" class="st0" d="M124.31,12.62c-0.28-0.38-0.66-0.28-1.01-0.1c-0.87,0.4-1.71,0.85-2.6,1.2
		c-6.57,2.47-12.91,5.49-19.2,8.61c-5.66,2.81-11.38,5.52-16.97,8.47c-5.59,2.96-11.19,5.91-16.54,9.27
		c-0.8,0.51-1.1,1.27-1.25,2.11c-0.07,0.35-0.09,0.78,0.58,0.77c0.33-0.17,0.71-0.35,1.08-0.56c1.43-0.82,2.84-1.67,4.27-2.47
		c10.25-5.75,20.82-10.87,31.35-16.07c5.77-2.84,11.69-5.33,17.58-7.95c1.17-0.52,2.13-1.15,2.63-2.39
		C124.33,13.21,124.52,12.92,124.31,12.62z"/>
	<path id="XMLID_276_" class="st0" d="M365.15,22.75c0.31,4.22,0.61,8.43,0.92,12.63c0.47,6.19,1.36,12.34,1.76,18.52
		c0.19,2.95,0.3,5.87,0.26,8.82c0,0.42-0.09,0.98,0.44,1.08c0.61,0.12,0.59-0.47,0.7-0.85c0.7-2.54,1.12-5.09,1.18-7.74
		c0.23-7.58-1.29-15.02-1.78-22.53c-0.21-3.08-0.77-6.13-0.42-9.31c0.89,0.05,0.98,1.22,1.78,0.84c0.47-0.21,0.37-0.75,0.23-1.15
		c-1.06-3.08-2.14-6.17-3.22-9.24c-0.1-0.3-0.23-0.64-0.59-0.68c-0.47-0.05-0.66,0.35-0.77,0.68c-0.49,1.55-1.36,2.98-0.85,4.79
		C365.15,19.92,365.07,21.35,365.15,22.75z"/>
	<path id="XMLID_275_" class="st0" d="M215.03,16.21c-0.4-0.8-1.13-0.12-1.66,0.12c-4.6,2.07-9.18,4.2-13.8,6.24
		c-5.68,2.51-11.26,5.26-16.69,8.28c-1.85,1.03-3.19,2.47-3.36,4.91c-0.16,1.08,0.68,1.78,1.55,2.42c0.44,0.31,0.77,1.15,1.41,0.7
		c0.64-0.44,0.47-1.24,0.3-1.92c-0.12-0.47-0.37-0.91-0.8-1.15c-1.52-0.85-0.82-1.6,0.16-2.2c1.73-1.05,3.5-2.02,5.28-2.96
		c6.83-3.57,13.92-6.6,20.89-9.88c1.92-0.91,3.85-1.81,5.73-2.77C214.71,17.64,215.41,16.98,215.03,16.21z"/>
	<path id="XMLID_274_" class="st0" d="M215.38,39.23c0.17-1.5-0.19-2.95-0.16-4.41c0.02-0.75,0.17-1.36,1.13-0.82
		c0.44,0.24,0.8,0.28,1.05-0.26c0.4-0.89-0.19-2.28-1.17-2.68c-1.13-0.47-1.81,0.02-2.27,1.06c-0.38,0.89-0.31,1.86-0.52,2.95
		c-0.94-0.75-1.76-1.43-2.58-2.07c-0.49-0.38-1.05-0.59-1.64-0.26c-0.56,0.33-0.75,0.89-0.73,1.52c0.02,1.17,0.54,1.92,1.74,2.14
		c0.78,0.16,1.45,0.47,2.09,1.06c0.66,0.61,0.92,1.24,0.98,1.86C213.41,39.42,214.82,40.43,215.38,39.23z"/>
	<path id="XMLID_273_" class="st0" d="M216.96,41.91c-0.44-0.52-0.58-0.78-0.99-1.06c-0.02-0.02-0.4-0.14-0.45-0.14
		c-1.31-0.09-1.55,0.37-1.71,0.99c0.1,1.34-0.92,1.39-1.03,2.67c-0.14,1.69-0.7,3.28-0.07,4.98c1.01,2.77,1.55,5.66,2.07,8.56
		c0.09,0.44-0.12,1.17,0.51,1.18c0.61,0.02,0.52-0.7,0.58-1.15c0.38-3.38-0.56-6.57-1.59-9.72c-0.75-2.32-0.78-2.4,1.57-2.67
		c0.8-0.09,1.6-0.05,1.9-1.08C218.06,43.41,217.73,42.84,216.96,41.91z"/>
	<path id="XMLID_272_" class="st0" d="M77.36,28.11c-0.05,0.47,0.09,0.85,0.75,0.87c0.21-0.12,0.49-0.28,0.77-0.42
		c3.28-1.62,6.57-3.22,9.85-4.86c5.73-2.89,11.76-5.16,17.43-8.19c0.7-0.37,1.46-0.64,1.85-1.43c0.21-0.42,0.58-0.85,0.19-1.32
		c-0.42-0.51-0.87-0.09-1.29,0.09c-9.46,4.06-18.75,8.49-27.97,13.05C77.95,26.37,77.5,27.12,77.36,28.11z"/>
	<path id="XMLID_271_" class="st0" d="M324.78,30.15c0.26-0.17,0.56-0.38,0.89-0.58c2.16-1.29,4.25-2.72,6.5-3.82
		c6.81-3.36,13.68-6.59,20.53-9.86c0.8-0.38,1.52-0.84,1.85-1.69c0.19-0.47,0.7-0.99,0.17-1.45c-0.42-0.38-0.91,0.02-1.32,0.23
		c-5.33,2.49-10.65,5.02-15.96,7.49c-3.94,1.83-7.74,3.9-11.41,6.19c-0.98,0.61-1.59,1.41-1.81,2.53
		C324.11,29.63,324.08,30.07,324.78,30.15z"/>
	<path id="XMLID_270_" class="st0" d="M333.94,36.48c0.47-0.91,0.94-1.81,1.12-2.82c0.07-0.42,0.12-0.92-0.35-1.13
		c-0.54-0.23-0.77,0.24-0.98,0.59c-2.81,4.81-5.42,9.72-6.33,15.32c-0.26,1.66,0.09,3.19,1.06,4.57c1.18,1.66,2.65,1.79,4.01,0.3
		c1.43-1.55,2.09-3.45,2.28-5.44c-0.09-0.75,0.21-1.66-0.64-1.88c-0.84-0.23-0.89,0.73-1.24,1.22c-0.12,0.17-0.19,0.38-0.3,0.58
		c-0.24,0.44-0.52,0.82-1.1,0.8c-0.66-0.03-0.91-0.52-1.05-1.05c-0.31-1.22-0.23-2.42,0.05-3.64
		C331.1,41.13,332.69,38.88,333.94,36.48z"/>
	<path id="XMLID_269_" class="st0" d="M144.17,50.63c1.43,1.39,1.52,1.39,2.72-0.28c0.31-0.44,0.71-0.8,0.96-1.27
		c0.54-0.99,1.05-0.77,1.69-0.12c0.71,0.71,1.5,1.34,2.25,2c0.31,0.28,0.71,0.71,1.08,0.31c0.98-1.12,1.79-2.35,2.42-3.64
		c-0.16-1.05-1.05-1.38-1.66-1.92c-2.49-2.2-2.53-2.2-4.58,0.42c-0.64,0.82-1.15,0.94-1.92,0.17c-0.75-0.75-1.6-1.39-2.39-2.09
		c-0.47-0.42-0.85-0.49-1.34,0.05c-2.32,2.51-2.32,3.35,0.07,5.72C143.72,50.17,143.95,50.4,144.17,50.63z"/>
	<path id="XMLID_268_" class="st0" d="M265.13,72.67c0.19-0.09,0.44-0.17,0.64-0.33c2.51-1.85,2.58-3.73,0.26-5.68
		c-0.21-0.17-0.45-0.3-0.63-0.49c-1.13-1.25-1.93-0.96-2.84,0.37c-1.5,2.2-1.57,2.16-3.54,0.52c-0.33-0.28-0.68-0.52-0.98-0.82
		c-0.66-0.64-1.13-0.52-1.71,0.17c-2.21,2.72-2.21,2.82,0.21,5.18c1.78,1.73,1.78,1.73,3.29-0.21c1.41-1.79,1.39-1.78,3.21-0.28
		C263.7,71.63,264.17,72.39,265.13,72.67z"/>
	<path id="XMLID_267_" class="st0" d="M289.58,46.24c-2.11,1.64-4.27,3.21-6.38,4.84c-0.35,0.28-0.99,0.61-0.64,1.12
		c0.42,0.59,0.98,0.05,1.39-0.21c0.7-0.4,1.36-0.85,2.02-1.31c4.13-2.75,8.47-5.28,10.94-9.86c0.26-0.47,0.61-0.73,1.18-0.45
		c0.42,0.23,0.92,0.56,1.22-0.1c0.3-0.63,0.58-1.39-0.12-1.92c-0.8-0.58-0.89-1.34-0.98-2.21c-0.07-0.84-0.28-1.69-0.52-2.51
		c-0.17-0.59-0.63-0.99-1.48-0.99c-1.18,0.61-2.07,1.57-2.4,3.03c-0.3,1.32-0.44,2.65,1.12,3.28c1.1,0.44,1.08,0.91,0.42,1.74
		C293.69,42.82,291.68,44.58,289.58,46.24z"/>
	<path id="XMLID_266_" class="st0" d="M207.69,30.45c2.3-1.46,4.53-3.01,6.88-4.41c2.61-1.55,4.93-3.4,6.81-5.75
		c0.54-0.68,1.05-0.82,1.78-0.4c0.44,0.24,0.91,0.47,1.22-0.16c0.3-0.61,0.51-1.45-0.17-1.73c-1.5-0.59-1.34-1.78-1.46-3
		c-0.09-0.98-0.3-2.21-1.45-2.47c-1.18-0.28-1.53,0.98-2.06,1.73c-1.05,1.5-0.94,3.05,0.31,3.8c1.32,0.78,0.94,1.36,0.09,2.13
		c-2.81,2.47-5.82,4.69-8.92,6.76c-1.78,1.18-3.75,2.2-5.11,4.27C206.68,31.25,207.17,30.78,207.69,30.45z"/>
	<path id="XMLID_265_" class="st0" d="M173.87,19.64c-0.33,0.19-0.64,0.44-0.61,0.85c0.03,0.31,0.33,0.47,0.59,0.37
		c1.43-0.52,3.07-0.47,4.29-1.57c1.64-1.48,2.68-3.42,3.97-5.16c0.58-0.77,0.24-1.39-0.66-1.71c-3.68-1.27-7.39,0.16-9.06,3.52
		c-0.19,0.38-0.47,0.77-0.16,1.18c0.31,0.4,0.75,0.24,1.18,0.16c1.22-0.24,2.44-0.64,3.96-0.21
		C176.32,18.42,175.03,18.96,173.87,19.64z"/>
	<path id="XMLID_264_" class="st0" d="M349.63,31.56c0.42-1.1,0.52-2.18,0.03-3.28c-0.44-0.98-0.89-1.93-1.31-2.93
		c-0.17-0.4-0.05-1.15-0.71-1.06c-0.63,0.09-0.66,0.8-0.68,1.31c-0.02,0.58,0.05,1.18,0.23,1.73c0.3,0.91,0.7,1.76,1.13,2.86
		c-1.39-0.1-1.6-1.01-1.86-1.79c-0.35-1.01-0.59-2.06-0.92-3.07c-0.14-0.42-0.16-1.08-0.85-0.94c-0.56,0.12-0.63,0.7-0.64,1.17
		c-0.02,0.52,0.07,1.06,0.16,1.59c0.1,0.63,0.35,1.25,0.4,1.88c0.05,0.75,0.3,1.86-0.78,1.95c-0.91,0.07-0.98-0.96-1.06-1.71
		c-0.09-0.85-0.16-1.71-0.28-2.54c-0.07-0.45-0.03-1.1-0.73-1.03c-0.59,0.07-0.68,0.68-0.64,1.13c0.1,1.71,0.23,3.42,0.47,5.11
		c0.14,0.92,0.82,1.5,1.76,1.66c0.85,0.16,1.48-0.21,1.81-0.99c0.44-0.99,0.84-0.37,1.31-0.03C347.8,33.5,349.05,33.08,349.63,31.56
		z"/>
	<path id="XMLID_263_" class="st0" d="M55.21,32.43c-0.44-0.12-0.99-0.4-1.34,0.09c-0.4,0.58-0.02,1.13,0.26,1.64
		c0.35,0.61,0.96,0.85,1.6,0.89c1.86,0.1,3.73-0.12,5.52-0.59c1.1-0.3,1.9-2.02,1.6-3.31c-0.3-1.27-1.2-1.62-2.4-1.6
		c-0.63,0-1.32,0.28-1.92-0.24c0.52-0.68,1.24-0.56,1.79-0.8c0.7-0.31,1.08-0.96,0.82-1.69c-0.3-0.82-1.01-0.64-1.6-0.35
		c-1.64,0.8-2.94,1.88-3.36,3.78c-0.26,1.15,0.21,1.76,1.32,1.85c0.89,0.07,1.78,0.02,2.67,0.02
		C58.56,32.57,56.92,32.92,55.21,32.43z"/>
	<path id="XMLID_262_" class="st0" d="M274.49,34.87c0.89-0.49,1.73-1.06,2.61-1.55c4.51-2.54,9.03-5.07,13.56-7.58
		c0.8-0.45,1.29-1.1,1.52-1.95c-0.12-0.82-0.61-0.78-1.17-0.51c-0.94,0.49-1.86,1.03-2.82,1.52c-4.64,2.32-9.18,4.79-13.61,7.46
		c-0.56,0.33-1.12,0.66-1.38,1.29c-0.19,0.45-0.35,0.94,0,1.36C273.6,35.4,274.08,35.12,274.49,34.87z"/>
	<path id="XMLID_261_" class="st0" d="M255.18,49.3c0.19,0.33,0.56,0.14,0.87,0.09c3.49-0.68,5.65-3,7.32-5.94
		c0.42-0.75,0.49-1.43-0.47-1.85c-3.24-1.41-7.39-0.02-8.94,2.98c-0.17,0.33-0.49,0.66-0.28,1.05c0.28,0.49,0.78,0.28,1.15,0.17
		c1.46-0.4,2.93-0.35,4.76-0.21c-1.55,1.08-2.77,1.93-3.99,2.79C255.32,48.62,254.95,48.89,255.18,49.3z"/>
	<path id="XMLID_260_" class="st0" d="M117.63,35.45c-0.16-0.89,0.03-1.81-0.38-2.67c-0.16-0.31-0.28-0.77-0.77-0.68
		c-0.44,0.09-0.59,0.51-0.54,0.87c0.17,1.67,0.23,3.4,0.66,5c0.42,1.59,1.6,1.79,2.88,0.68c0.54-0.47,0.96-0.61,1.67-0.31
		c1.92,0.8,2.81,0.14,3.14-1.93c0.3-1.79-0.89-3.1-1.32-4.67c-0.09-0.35-0.23-0.78-0.71-0.7c-0.45,0.07-0.49,0.52-0.56,0.87
		c-0.28,1.45,0.37,2.7,0.98,4.16c-1.17-0.21-1.46-0.94-1.62-1.74c-0.17-0.94-0.35-1.88-0.77-2.75c-0.19-0.4-0.35-1.03-0.96-0.85
		c-0.56,0.14-0.59,0.75-0.54,1.2c0.14,1.1,0.38,2.2,0.54,3.29c0.09,0.64,0.09,1.43-0.77,1.48
		C117.89,36.76,117.74,36.02,117.63,35.45z"/>
	<path id="XMLID_259_" class="st0" d="M162.42,14.12c0.23-0.4,0.4-0.94-0.16-1.27c-0.44-0.24-0.7,0.14-0.87,0.45
		c-2.07,3.43-3.64,7.06-4.3,11.05c0,0.89,0.16,1.71,0.49,2.51c0.4,0.98,1.17,1.53,2.18,1.64c1.06,0.1,1.64-0.61,2-1.52
		c0.49-1.24,0.96-2.47,1.39-3.73c0.16-0.42,0.47-1.03-0.1-1.27c-0.59-0.24-0.73,0.45-0.96,0.84c-0.31,0.49-0.58,1.1-1.32,0.87
		c-0.64-0.19-0.87-0.75-0.98-1.34c-0.23-1.2,0.1-2.32,0.52-3.43C160.9,17.27,161.55,15.64,162.42,14.12z"/>
	<path id="XMLID_258_" class="st0" d="M45.33,23.15c0.26-0.14,0.59-0.3,0.91-0.47c0.91-0.54,1.81-1.12,2.72-1.64
		c3.59-2.06,7.18-4.11,10.77-6.19c0.75-0.44,1.31-1.18,0.94-1.97c-0.51-1.06-1.31-0.19-1.88,0.09c-4.44,2.18-8.7,4.67-12.93,7.23
		c-0.77,0.47-1.32,1.06-1.39,2C44.44,22.71,44.58,23.15,45.33,23.15z"/>
	<path id="XMLID_257_" class="st0" d="M234.28,32.38c-0.44-0.14-0.98-0.52-1.31,0.02c-0.3,0.49,0.02,1.05,0.33,1.48
		c0.31,0.45,0.8,0.7,1.31,0.89c1.86,0.68,3.8,0.52,5.72,0.38c0.99-0.07,2.14-1.86,2.06-2.96c-0.09-1.01-0.61-1.66-1.67-1.85
		c-0.78-0.16-2.11,0.37-2.23-0.54c-0.12-0.8,1.31-0.56,1.95-0.96c0.58-0.35,1.1-0.87,0.8-1.57c-0.33-0.8-1.1-0.54-1.67-0.28
		c-1.12,0.52-2.13,1.24-2.82,2.28c-0.45,0.64-1.05,1.32-0.61,2.2c0.44,0.85,1.29,0.8,2.09,0.85c0.73,0.05,1.5-0.17,2.6,0.58
		C238.34,32.92,236.29,33.01,234.28,32.38z"/>
	<path id="XMLID_256_" class="st0" d="M345.51,41.64c0.52-0.44,0.85,0.12,1.22,0.38c0.33,0.24,0.68,0.49,0.94,0.03
		c0.38-0.64,0.35-1.38-0.03-1.99c-0.47-0.77-1.03-1.59-2.07-1.55c-0.73,0.02-1.03,0.64-1.25,1.29c-0.42,1.13-0.19,2.34-0.44,3.78
		c-0.38-0.31-0.63-0.44-0.77-0.63c-0.73-1.01-1.57-1.9-2.74-2.39c-0.77-0.31-1.46-0.4-1.83,0.59c-0.52,1.41,0,3.03,1.41,3.4
		c1.92,0.51,3.19,1.55,3.97,3.33c0.17,0.4,0.44,0.96,1.06,0.71c0.49-0.19,0.42-0.71,0.4-1.13c-0.03-1.5-0.1-3-0.16-4.48
		C345.22,42.51,345.13,41.97,345.51,41.64z"/>
	<path id="XMLID_255_" class="st0" d="M327.77,17.54c1.86,0.07,3.03,1.08,3.85,2.67c0.26,0.51,0.61,1.31,1.43,0.96
		c0.68-0.3,0.61-1.06,0.59-1.71c-0.03-1.22-0.14-2.46-0.14-3.68c0-0.68,0.21-1.2,1.06-0.84c1.29,0.54,1.38-0.23,1.25-1.17
		c-0.16-1.15-0.82-1.92-1.97-1.95c-1.13-0.03-1.5,0.91-1.62,1.85c-0.12,0.98-0.12,1.97-0.21,3.24c-1.24-1.32-2.21-2.51-3.62-3.21
		c-0.56-0.28-1.12-0.58-1.6-0.03c-0.61,0.7-0.54,1.59-0.37,2.44C326.59,16.87,326.94,17.5,327.77,17.54z"/>
	<path id="XMLID_254_" class="st0" d="M149.54,15.1c0.51,0.33,0.98,0.49,1.25-0.26c0.4-1.06-0.4-2.44-1.69-2.86
		c-1.25-0.42-1.97,0.23-2.25,1.34c-0.24,0.96-0.28,1.99-0.45,3.29c-1.12-0.89-1.86-1.88-2.98-2.4c-0.7-0.33-1.43-0.56-1.97,0.26
		c-0.84,1.25-0.21,3.29,1.24,3.4c1.9,0.14,2.93,1.17,3.83,2.6c0.21,0.33,0.47,0.82,0.98,0.66c0.58-0.17,0.58-0.73,0.56-1.2
		c-0.03-1.27-0.16-2.54-0.16-3.82C147.9,14.94,148.29,14.26,149.54,15.1z"/>
	<path id="XMLID_253_" class="st0" d="M304.93,67.53c0.45-0.82-0.03-3.12-0.85-3.54c-1.32-0.66-2.06,0.31-2.53,1.25
		c-0.99,2.06-2.63,3.35-4.6,4.29c-2.13,1.01-4.08,2.37-6.38,3.01c-0.44,0.12-0.94,0.3-1.13,1.32c4.43-0.66,8.21-2.21,11.36-5.07
		c0.77-0.7,1.32-1.08,2.32-0.68C303.83,68.42,304.51,68.26,304.93,67.53z"/>
	<path id="XMLID_252_" class="st0" d="M350.79,69.59c1.52-0.1,1.55-1.27,1.52-2.35c-0.02-0.64-0.42-0.94-1.12-0.47
		c-0.82,0.56-2.11,0.42-2.42,1.76c-0.09,0.35-0.64,0.21-1.03,0.1c-0.51-0.16-1.03-0.28-1.41-0.38c-1.15,0.16-2.13,0.44-3.05,0.89
		c-2.74,1.34-5.49,2.67-8.49,3.35c-0.44,0.1-1.18,0.16-1.06,0.73c0.14,0.66,0.87,0.45,1.38,0.38c2.7-0.44,5.33-1.1,7.79-2.4
		c1.38-0.73,2.81-1.34,4.41-0.45c0.66,0.37,1.36,0.05,1.93-0.42C349.7,69.95,350.17,69.64,350.79,69.59z"/>
	<path id="XMLID_251_" class="st0" d="M276.93,18.06c1.83,0.21,2.68,1.25,3.33,2.77c0.17,0.42,0.37,1.01,0.96,0.94
		c0.7-0.09,0.7-0.78,0.7-1.27c0.02-1.27-0.12-2.56-0.1-3.83c0-0.7,0.07-1.57,1.18-0.92c0.42,0.24,0.82,0.63,1.27,0.14
		c0.4-0.44,0.4-1.01,0.23-1.52c-0.33-0.91-0.98-1.6-1.95-1.67c-1.12-0.09-1.41,0.85-1.59,1.69c-0.21,1.08-0.28,2.18-0.44,3.49
		c-1.08-1.22-1.74-2.54-3.07-3.22c-0.58-0.3-1.06-0.52-1.55,0.12C275.15,15.76,275.69,17.92,276.93,18.06z"/>
	<path id="XMLID_250_" class="st0" d="M256.1,30.62c1.48,0.37,2.46,1.13,3.14,2.44c0.23,0.44,0.61,0.99,1.25,0.71
		c0.58-0.24,0.58-0.87,0.56-1.39c-0.05-1.17-0.19-2.34-0.26-3.52c-0.05-0.89,0.17-1.48,1.15-0.68c0.4,0.33,0.85,0.66,1.17,0.02
		c0.35-0.68,0.1-1.39-0.35-1.95c-0.51-0.63-1.12-1.24-2-1.12c-0.73,0.1-1.03,0.73-1.12,1.39c-0.12,0.99-0.17,1.99-0.26,3.17
		c-1.06-0.92-1.88-1.69-2.75-2.39c-0.42-0.33-0.94-0.59-1.41,0C254.55,28.18,255.02,30.36,256.1,30.62z"/>
	<path id="XMLID_249_" class="st0" d="M192.11,43.12c-0.09,0.47,0,0.85,0.66,0.89c0.19-0.09,0.44-0.17,0.66-0.31
		c3.28-2.09,6.87-3.57,10.33-5.31c0.47-0.24,0.91-0.56,1.27-0.92c0.37-0.37,0.8-0.85,0.47-1.41c-0.38-0.63-0.99-0.21-1.43,0
		c-3.62,1.78-7.32,3.4-10.8,5.45C192.64,41.86,192.25,42.4,192.11,43.12z"/>
	<path id="XMLID_248_" class="st0" d="M302.49,20.83c0.16-0.07,0.42-0.16,0.64-0.3c2.91-1.9,6.17-3.15,9.29-4.64
		c0.91-0.44,1.78-0.98,2.56-1.62c0.42-0.35,0.73-1.05,0.3-1.59s-1.03-0.16-1.41,0.17c-0.98,0.8-2.2,1.1-3.29,1.64
		c-2.63,1.29-5.35,2.42-7.81,4.06c-0.58,0.38-0.94,0.85-0.99,1.55C301.74,20.57,301.91,20.85,302.49,20.83z"/>
	<path id="XMLID_247_" class="st0" d="M75.38,56c-2.61,2.42-2.58,3.52,0.19,5.75c0.24,0.19,0.49,0.4,0.75,0.59
		c0.3,0.23,0.63,0.4,1.03,0.3c0.52-0.14,2.51-3,2.47-3.69c-0.03-0.09-0.07-0.33-0.21-0.45c-1.03-0.92-2.06-1.83-3.1-2.72
		C76.07,55.42,75.72,55.68,75.38,56z"/>
	<path id="XMLID_246_" class="st0" d="M158.9,66.59c-0.96-0.28-1.69,0.59-2.09,1.39c-0.63,1.24-1.64,1.93-2.84,2.42
		c-1.32,0.54-2.7,0.98-4.01,1.57c-1.41,0.64-3.01,0.87-4.23,2c3.69-0.21,7.28-0.82,10.28-3.17c0.75-0.58,1.29-0.91,2.23-0.51
		c1.13,0.47,1.76-0.17,1.78-1.29C160.03,68.05,159.93,66.89,158.9,66.59z"/>
	<path id="XMLID_245_" class="st0" d="M59.85,39.28c0.14-0.07,0.33-0.17,0.52-0.28c3.31-1.92,6.62-3.83,9.95-5.73
		c0.44-0.24,0.78-0.54,0.96-1.01c0.14-0.4,0.37-0.84,0.02-1.2c-0.38-0.4-0.8-0.12-1.17,0.07c-3.14,1.78-6.29,3.57-9.41,5.38
		c-0.7,0.4-1.32,0.92-1.45,1.79C59.17,38.78,59.19,39.18,59.85,39.28z"/>
	<path id="XMLID_244_" class="st0" d="M256.68,19.28c0.45-0.19,1.06-0.38,1.6-0.71c2.44-1.43,5.07-2.47,7.62-3.68
		c0.45-0.21,0.85-0.44,1.1-0.87c0.23-0.42,0.54-0.87,0.21-1.32c-0.33-0.42-0.82-0.19-1.18-0.03c-3.03,1.43-6.2,2.54-9.13,4.2
		c-0.64,0.37-0.99,0.96-1.1,1.67C255.73,19.07,255.94,19.37,256.68,19.28z"/>
	<path id="XMLID_243_" class="st0" d="M230.24,70.55c1.12,0.42,1.62-0.3,1.64-1.29c0.02-0.91-0.09-1.99-1.08-2.3
		c-1.03-0.31-1.52,0.68-1.81,1.45c-0.61,1.64-1.76,2.49-3.38,3.12c-2.47,0.92-4.86,2.06-7.35,3.01c3.78,0.17,7.28-0.51,10.09-3.24
		C228.92,70.74,229.3,70.2,230.24,70.55z"/>
	<path id="XMLID_242_" class="st0" d="M227.31,50c0.75-0.61,0.84-1.57,0.96-2.42c-0.05-0.85-0.31-1.52-1.13-1.83
		c-0.78-0.3-1.57-0.52-2.07-1.36c-0.42-0.71-0.84-0.12-0.96,0.33c-0.3,1.08-0.56,2.18-0.75,3.28c-0.17,1.01,0.05,2.04,0.98,2.53
		C225.34,51.08,226.44,50.71,227.31,50z"/>
	<path id="XMLID_241_" class="st0" d="M354.02,38.69c-1.24,2.02-2.28,4.11-2.58,6.47c0.03,0.99,0.23,1.86,1.13,2.37
		c0.45,0.24,0.98,0.23,1.36-0.14c0.82-0.78,1.12-1.81,1.17-2.89c0.02-0.37-0.21-0.54-0.64-0.49c-1.2,0.17-1.27,0.09-0.8-1.08
		c0.51-1.24,1.06-2.46,1.57-3.69c0.14-0.35,0.12-0.78-0.3-0.98C354.49,38.05,354.21,38.38,354.02,38.69z"/>
	<path id="XMLID_240_" class="st0" d="M311.79,27.02c0.44-1.08,0.92-2.16,1.34-3.24c0.1-0.28,0.12-0.66-0.26-0.82
		c-0.31-0.12-0.54,0.1-0.63,0.35c-0.91,2.2-2.3,4.22-2.61,6.55c0.05,1.06,0.37,1.86,1.25,2.35c0.47,0.26,0.98,0.21,1.32-0.19
		c0.64-0.73,1.1-1.6,0.98-2.61c-0.05-0.52-0.4-0.78-0.91-0.38c-1.1,0.89-1.01-0.03-0.94-0.66C311.38,27.9,311.62,27.45,311.79,27.02
		z"/>
	<path id="XMLID_239_" class="st0" d="M359.39,72.81c0.56,0.7,1.22,0.68,1.78,0.09c0.64-0.68,1.36-1.41,1.08-2.51
		c-0.05-0.23-0.35-0.21-0.56-0.17c-1.38,0.28-1.12-0.64-0.85-1.32c0.31-0.84,0.82-1.6,1.2-2.42c0.3-0.64,0.8-1.25,0.37-2.47
		c-1.73,2.44-3.47,4.48-3.59,7.35C358.81,71.89,359.04,72.38,359.39,72.81z"/>
	<path id="XMLID_238_" class="st0" d="M120.04,19.61c-0.37-0.47-0.73-1.31-1.45-0.85c-0.71,0.45-0.56,1.31-0.26,2
		c0.14,0.33,0.44,0.59,0.66,0.89c0.84,1.12,1.39,2.35,1.6,3.75c0.12,0.87-0.28,1.66-0.37,2.49c-0.05,0.37-0.16,0.84,0.28,0.98
		c0.51,0.16,0.56-0.38,0.68-0.7c0.4-1.05,0.64-2.13,0.58-3.28C121.9,22.92,121.26,21.18,120.04,19.61z"/>
	<path id="XMLID_237_" class="st0" d="M93.2,33.79c0.19-0.35,0.24-0.75-0.14-0.99c-0.33-0.23-0.64-0.02-0.78,0.28
		c-1.01,2.02-2.39,3.9-2.58,5.96c-0.03,1.69,0.64,2.77,1.52,2.77c0.82,0,1.97-1.55,1.97-2.63c0-0.66-0.33-0.75-0.78-0.38
		c-1.05,0.85-0.99,0-1.03-0.64c-0.03-0.71,0.19-1.38,0.51-1.99C92.28,35.35,92.77,34.6,93.2,33.79z"/>
	<path id="XMLID_236_" class="st0" d="M171.86,32.75c0.17-0.31,0.33-0.73-0.14-0.96c-0.33-0.16-0.64,0.05-0.82,0.31
		c-1.15,1.78-2.11,3.66-2.51,5.56c0,1.52,0.68,2.46,1.59,2.37c0.8-0.07,1.86-1.66,1.74-2.58c-0.07-0.49-0.3-0.63-0.77-0.4
		c-1.41,0.71-0.96-0.3-0.78-0.91C170.56,34.93,171.25,33.86,171.86,32.75z"/>
	<path id="XMLID_235_" class="st0" d="M249.91,36.74c0.1-0.24,0.16-0.56-0.12-0.71c-0.28-0.17-0.52,0.05-0.64,0.28
		c-1.17,2.09-2.54,4.08-2.81,6.53c0.05,1.15,0.23,2.21,1.57,2.46c0.71,0.14,1.86-1.41,1.88-2.47c0-0.19-0.03-0.47-0.17-0.58
		c-0.26-0.21-0.47,0.02-0.68,0.19c-0.94,0.87-1.15,0.19-1.22-0.61c-0.07-0.61,0.23-1.13,0.49-1.66
		C248.8,39.04,249.36,37.91,249.91,36.74z"/>
	<path id="XMLID_234_" class="st0" d="M101.67,68.7c-2.23,0.98-4.44,1.97-6.66,2.98c-0.51,0.23-0.92,0.68-0.58,1.27
		c0.31,0.54,0.84,0.3,1.27,0.1c2.02-0.92,4.03-1.86,6.05-2.81c0.45-0.21,0.8-0.51,0.91-1.08C102.63,68.47,102.16,68.49,101.67,68.7z
		"/>
	<path id="XMLID_233_" class="st0" d="M198.23,29.3c0.12-0.28,0.14-0.64-0.24-0.82c-0.3-0.12-0.54,0.09-0.64,0.31
		c-0.73,1.79-1.93,3.42-1.99,5.18c0.02,0.99,0.07,1.69,0.77,2.07c0.47,0.26,0.94,0.17,1.34-0.16c0.7-0.58,0.89-1.43,0.98-2.27
		c0.05-0.4-0.3-0.54-0.64-0.35c-1.53,0.84-1.05-0.45-0.89-0.96C197.25,31.3,197.81,30.33,198.23,29.3z"/>
	<path id="XMLID_232_" class="st0" d="M245.47,72.11c-0.19,0.33-0.23,0.75,0.12,1.01c0.24,0.19,0.52,0.1,0.7-0.12
		c1.25-1.6,2.32-3.31,2.67-5.04c-0.02-0.87-0.09-1.43-0.66-1.67c-0.63-0.28-1.15,0.05-1.57,0.49c-0.44,0.45-0.92,0.92-0.91,1.62
		c0.02,0.35,0.35,0.33,0.61,0.23c0.3-0.12,0.64-0.28,0.85,0.07c0.24,0.4-0.12,0.68-0.33,0.98C246.46,70.49,245.94,71.3,245.47,72.11
		z"/>
	<path id="XMLID_231_" class="st0" d="M117.63,70.6c-1.78,0.37-0.89-0.77-0.68-1.32c0.33-0.91,1.03-1.69,1.01-2.81
		c-1.22,0.63-3.28,4.44-3,5.51c0.23,0.82,0.71,1.55,1.69,1.24c1.03-0.33,1.39-1.22,1.41-2.27C118.05,70.72,117.88,70.55,117.63,70.6
		z"/>
	<path id="XMLID_230_" class="st0" d="M50.33,52.16c0.87-0.37,1.1-1.1,1.08-1.93c0-0.49-0.1-1.08-0.73-1.03
		c-1.52,0.14-1.1-0.77-0.84-1.5c0.31-0.89,0.75-1.76,1.1-2.65c0.14-0.37,0.07-0.75-0.35-0.94c-0.28-0.14-0.56-0.02-0.68,0.23
		c-0.85,1.76-1.83,3.49-2.02,5.54c0.07,0.66,0.24,1.32,0.7,1.86C49.04,52.28,49.65,52.44,50.33,52.16z"/>
	<path id="XMLID_229_" class="st0" d="M181.78,50.58L181.78,50.58c-6.55-1.15-13.02-2.72-19.74-2.04l0,0
		C168.76,47.84,175.23,49.41,181.78,50.58z"/>
	<path id="XMLID_228_" class="st0" d="M173,53.59c-0.96,0.37-1.92,0.75-2.86,1.15C171.1,54.36,172.04,53.97,173,53.59z"/>
	<path id="XMLID_227_" class="st1" d="M302.4,49.27c-0.45,0.75,1.22,3.69,1.22,3.69s4.98-1.01,4.03-2.09
		C306.67,49.77,302.87,48.5,302.4,49.27z"/>
	<path id="XMLID_226_" class="st0" d="M311.97,50.54c-0.03-0.24-0.17-0.54-0.35-0.68c-2.06-1.6-3.96-3.49-6.64-4.06
		c-1.64-0.35-3.33-0.73-4.58,0.84c-1.48,1.86-2.02,3.97-0.85,6.13c0.68,1.25,0.3,1.62-0.82,2.06c-4.03,1.55-7.75,3.61-10.77,6.8
		c-1.95,2.06-3.9,4.13-5.89,6.13c-1.13,1.15-2.42,2.11-4.06,2.44c-2.4,0.49-4.1-0.8-4.3-3.22c-0.26-2.91,0.73-5.47,2-7.98
		c0.37-0.73,0.82-0.91,1.67-0.58c1.66,0.61,3.42,1.1,5.19,0.68c5.56-1.29,9.81-4.29,12.22-9.6c0.26-0.59,0.89-1.38,0.1-1.86
		c-0.7-0.45-1.03,0.52-1.55,0.84c-0.28,0.16-0.49,0.4-0.73,0.63c-1.97,1.85-4.18,3.31-6.74,4.27c-1.52,0.56-2.91,0.51-4.27-0.44
		c-2.6-1.79-3.75-4.44-4.5-7.35c-0.17-0.7,0.1-1.13,0.73-1.39c4.13-1.73,8.36-2.53,12.84-1.74c0.37,0.07,0.77,0.35,1.05-0.02
		c0.35-0.49-0.14-0.78-0.44-1.06c-1.86-1.83-4.18-2.42-6.74-2.54c-5.3-0.28-9.17,2.72-10.09,7.84c-0.23,1.27,0.31,2.49,0.19,3.92
		c-0.78-0.78-1.06-1.62-1.24-2.51c-1.18-5.84-1.38-11.8-1.88-17.7c-0.44-5.12-1.36-10.19-1.83-15.3c-0.05-0.56-0.16-1.31-0.92-1.29
		c-0.66,0.02-0.64,0.75-0.85,1.22c-1.01,2.35-0.75,4.77-0.47,7.25c0.64,5.86,1.32,11.71,1.59,17.57c0.19,4.34,1.27,8.59,1.06,12.95
		c-0.09,1.73-1.03,2.61-3.19,2.84c-1.46,0.16-2.58-0.61-2.95-2.11c-0.14-0.58-0.17-1.17-0.23-1.74c-0.05-0.47,0.03-1.05-0.54-1.22
		c-0.56-0.19-0.85,0.31-1.22,0.61c-1.03,0.89-1.64,2.11-2.46,3.15c-2.13,2.68-5.07,3.54-8.28,2.49c-2.14-0.7-3.66-2.11-4.95-3.87
		c-2.4-3.28-4.5-6.81-7.35-9.72c-4.36-4.43-8.89-8.68-13.52-12.79c-1.31-1.15-1.27-1.39,0.26-2.27c5.91-3.38,12.04-6.31,18.44-8.64
		c1.83-0.66,3.75-1.32,5.77-1.27c1.76,0.05,2.11,0.7,1.24,2.2c-0.54,0.92-1.12,1.83-1.69,2.74c-1.53,2.44-2.39,5.12-3.1,7.88
		c-0.09,0.33-0.26,0.84,0.24,0.96c0.49,0.12,0.61-0.38,0.7-0.71c0.45-1.92,1.36-3.64,2.47-5.19c1.74-2.44,2.96-5.09,3.83-7.91
		c0.42-1.36,1.15-2.86,0.03-4.13c-1.12-1.27-2.68-0.71-4.1-0.44c-2.95,0.59-5.72,1.73-8.5,2.84c-5.52,2.21-10.94,4.62-16,7.77
		c-3.35,2.07-3.99,7.25-1.39,10.21c3.89,4.43,7.95,8.7,11.59,13.33c1.78,2.27,3.47,4.62,4.69,7.27c0.42,0.91,0.23,1.53-0.63,2.02
		c-1.64,0.91-3.49,1.46-4.98,0.24c-1.34-1.08-2.72-1.08-4.2-1.31c-3.82-0.58-7.02,0.84-9.72,3.24c-3.12,2.77-5.96,5.84-8.92,8.78
		c-1.12,1.1-2.28,2.13-3.73,2.75c-2.2,0.96-4.18-0.24-4.37-2.61c-0.03-0.31-0.03-0.64-0.02-0.96c0.05-0.77,0.42-1.79,0.77-2.65
		c0.1-0.26-0.24-0.49-0.44-0.26c-0.59,0.64-1.15,1.24-1.55,1.67c-0.38,0.4-0.56,0.94-0.51,1.48c0,0.02,0,0.03,0,0.07
		c0.14,3.01,1.48,5.19,4.36,6.33c3.03,1.18,5.37,0.14,7.42-2.16c2-2.23,4.08-4.39,6.17-6.53c1.83-1.86,4.04-3.17,6.55-3.92
		c2.91-0.87,4.79,0.16,5.68,2.95c0.73,2.32,2.25,3.97,4.53,4.9c0.99,0.4,1.59,0.1,1.66-0.98c0.07-1.01,0.19-2.06,0.03-3.05
		c-0.28-1.67-0.02-2.91,1.81-3.45c0.47-0.14,0.77-0.59,0.98-1.03c1.05-2.25,1.52-4.55,0.89-7.02c-0.12-0.47-0.47-0.96-0.1-1.62
		c1.22,1.85,2.4,3.61,3.55,5.38c1.71,2.67,3.83,4.81,7.13,5.23c3.94,0.51,6.45-1.66,8.4-4.76c0.28-0.44,0.44-1.13,1.06-1.05
		c0.56,0.07,0.47,0.77,0.59,1.2c0.77,2.6,2.63,3.55,5.16,2.68c1.32-0.45,2.3-1.2,2.98-2.49c0.56-1.05,1.01-2.13,1.34-3.24
		c0.21-0.7,0.37-0.96,0.99-0.23c2.23,2.58,2.27,2.56,0.8,5.63c-0.05,0.1-0.1,0.19-0.14,0.3c-1.22,3-1.85,5.98-0.73,9.22
		c1.62,4.77,7.68,6.2,11,2.46c1.57-1.76,3.33-3.35,4.79-5.18c3.19-3.97,7.55-6.05,12.08-7.89c0.61-0.24,1.32-0.51,2.02-0.16
		c0.47,0.24,0.85,0.17,1.05-0.33c0.28-0.78,0.98-0.91,1.62-1.15c1.31-0.47,2.61-0.94,3.89-1.5
		C310.31,55.45,312.18,51.81,311.97,50.54z M303.62,52.95c0,0-1.67-2.93-1.22-3.69c0.45-0.75,4.27,0.51,5.25,1.59
		C308.61,51.95,303.62,52.95,303.62,52.95z"/>
	<path id="XMLID_225_" class="st1" d="M203.04,48.59c-2.02-0.51-3.35,0.21-3.38,1.53c-0.03,1.34,1.34,1.69,3.29,1.46
		c1.78-0.21,2.14,0.56,2.14,0.56C205.62,50.52,205.04,49.09,203.04,48.59z"/>
	<path id="XMLID_224_" class="st0" d="M181.78,50.58L181.78,50.58c-6.55-1.15-13.02-2.72-19.74-2.04l0,0
		C168.76,47.84,175.23,49.41,181.78,50.58z"/>
	<path id="XMLID_223_" class="st0" d="M180.3,51.03c0.49-0.16,0.99-0.31,1.48-0.47l0,0l0,0C181.29,50.71,180.79,50.87,180.3,51.03z"
		/>
	<path class="st0" d="M204.07,44.58c-1.92-1.36-3.5-1.22-5.16,0.47c-1.64,1.66-2.47,3.75-2.42,6.06c0.07,3.08,1.43,4.32,4.48,4.36
		c1.12,0.02,2.23-0.02,3.35,0.09c0.68,0.07,1.46,0.21,1.73,0.96c0.26,0.73-0.44,1.15-0.85,1.59c-2.34,2.4-4.81,4.65-7.49,6.69
		c-2.63,2-5.47,3.49-8.92,3.38c-2.14-0.07-3.57-1.18-4.44-3.08c-0.35-0.75-0.35-1.53,0.16-2.11c2.18-2.53,6.88-5.68,10.79-2.81
		c0.44,0.33,0.85,0.42,1.24-0.09c0.82-1.1,0.4-4.32-0.7-5.16c-2.11-1.59-4.39-1.74-6.78-0.71c-3.14,1.36-5.65,3.57-7.96,6.01
		c-2.23,2.35-4.29,4.86-6.64,7.11c-1.12,1.06-2.39,1.78-3.89,2.07c-1.55,0.3-2.77-0.44-3.21-1.92c-0.47-1.57-0.47-3.15-0.1-4.74
		c0.1-0.44,0.12-1.08,0.68-1.15c0.51-0.07,0.58,0.56,0.77,0.91c0.99,1.88,2.68,2.86,4.6,3.43c1.32,0.4,2.07-0.17,1.97-1.46
		c-0.14-1.69-0.05-3.47-0.84-5c-0.61-1.22-0.24-1.67,0.89-2.07c4.36-1.53,8.68-3.21,13.05-4.69c1.36-0.45,2.27-1.13,2.89-2.44
		c1.25-2.65,1.17-2.95-1.73-3.54c-4.95-1.01-9.9-2.04-14.86-2.96c-3.35-0.63-6.74-0.98-10.16-0.78c-2.72,0.16-5.02,1.64-5.38,3.71
		c-0.45,2.58-0.42,5.42,2.68,7.01c1.08,0.56,2.06,1.32,3.08,1.99c0.7,0.44,0.89,0.89,0.12,1.45c-1.55,1.13-3.12,2.27-4.91,2.95
		c-3.17,1.2-6.01,0.35-8.05-2.37c-0.66-0.89-1.27-1.81-2.2-2.51c-0.75-0.56-1.43-0.63-2.21-0.21c-2.49,1.34-4.51,3.12-5.92,5.63
		c-1.15,2.06-1.69,4.37-2.84,6.41c-0.71,1.27-1.57,2.6-3.22,2.47c-1.74-0.12-2.54-1.57-3.17-3.03c-0.16-0.38-0.24-0.82-0.28-1.24
		c-0.21-2.06-0.38-4.13-0.58-6.19c-0.05-0.45,0.07-1.1-0.58-1.13c-0.61-0.02-0.66,0.61-0.73,1.06c-0.59,4.48-0.03,8.75,2.61,12.49
		c1.52,2.14,4.44,3.1,6.59-0.03c0.58-0.84,0.96-1.76,1.24-2.75c0.85-2.95,2.47-5.38,4.83-7.35c2.25-1.88,3.14-1.74,4.83,0.71
		c2.23,3.24,5.73,5.38,10.33,2.98c1.29-0.68,2.51-1.39,3.62-2.3c0.31-0.26,0.64-0.73,1.1-0.47c0.45,0.26,0.17,0.78,0.1,1.17
		c-0.33,1.88-0.19,3.71,0.47,5.51c1.6,4.43,7.04,5.77,10.39,2.49c1.55-1.52,2.96-3.21,4.44-4.79c0.44-0.45,0.78-1.34,1.38-1.18
		c0.73,0.17,0.37,1.1,0.44,1.69c0.66,4.81,3.68,6.97,8.42,6.08c1.67-0.31,3.1-1.1,4.48-2.02c2.3-1.53,4.34-3.4,6.67-5.31
		c0,0,1.85-1.9,3.29-3.59c0.02-0.03,0.05-0.07,0.07-0.09c0.05-0.07,0.12-0.14,0.19-0.21c1.92-2,2.32-4.84,2.61-7.42
		C208.89,50.59,207.5,47.04,204.07,44.58z M205.08,52.14c0,0-0.37-0.77-2.14-0.56c-1.93,0.23-3.33-0.14-3.29-1.46
		c0.03-1.34,1.38-2.04,3.38-1.53C205.04,49.09,205.62,50.52,205.08,52.14z M165.66,51.48c-0.73-0.63-1.5-1.22-2.25-1.83
		c-0.45-0.37-0.92-0.73-1.38-1.12c6.73-0.7,13.19,0.87,19.74,2.04c-0.49,0.16-0.99,0.31-1.48,0.47c-2.46,0.78-4.9,1.64-7.3,2.56
		c-0.96,0.37-1.92,0.75-2.86,1.15c-0.4,0.17-0.85,0.31-1.18-0.07C167.94,53.5,166.83,52.47,165.66,51.48z"/>
	<path id="XMLID_222_" class="st0" d="M165.66,51.48c-0.73-0.63-1.5-1.22-2.25-1.83C164.16,50.26,164.91,50.87,165.66,51.48z"/>
	<path id="XMLID_221_" class="st0" d="M162.04,48.54c0.45,0.38,0.92,0.75,1.38,1.12C162.94,49.29,162.49,48.9,162.04,48.54
		L162.04,48.54z"/>
	<path id="XMLID_220_" class="st0" d="M180.3,51.03c-2.46,0.78-4.9,1.64-7.3,2.56C175.4,52.67,177.84,51.83,180.3,51.03z"/>
	<path id="XMLID_219_" class="st0" d="M165.66,51.48c-0.73-0.63-1.5-1.22-2.25-1.83C164.16,50.26,164.91,50.87,165.66,51.48z"/>
	<path id="XMLID_218_" class="st0" d="M181.78,50.58L181.78,50.58c-0.49,0.16-0.99,0.31-1.48,0.47
		C180.79,50.87,181.29,50.71,181.78,50.58z"/>
	<path id="XMLID_217_" class="st0" d="M107.49,31.63c-1.48-1.67-3.47-1.24-3.96,0.92c-0.31,1.41-0.66,3.15-0.12,4.36
		c0.82,1.79-0.05,2.47-1.15,3.33c-0.51,0.38-0.96,0.84-1.46,1.22c-2.02,1.55-4.08,3.07-6.1,4.62c-0.33,0.24-0.78,0.52-0.45,1.03
		c0.28,0.42,0.7,0.14,0.99-0.07c3.45-2.39,7.27-4.29,9.97-7.63c0.64-0.8,1.34-0.91,2.25-0.68c1.99,0.51,2.88-0.26,2.86-2.72
		C110.16,34.3,108.71,33.01,107.49,31.63z M105.68,36.22c0,0-0.78-2.27-0.14-2.96c0.64-0.68,2.32,1.99,2.44,2.68
		C108.1,36.62,105.68,36.22,105.68,36.22z"/>
</g>
</svg>
