<?xml version="1.0" encoding="utf-8"?>
<!-- Generator: Adobe Illustrator 27.0.1, SVG Export Plug-In . SVG Version: 6.00 Build 0)  -->
<svg version="1.1" id="Layer_1" xmlns="http://www.w3.org/2000/svg" xmlns:xlink="http://www.w3.org/1999/xlink" x="0px" y="0px"
	 viewBox="0 0 311.14 241.95" style="enable-background:new 0 0 311.14 241.95;" xml:space="preserve">
<style type="text/css">
	.st0{fill:#6A4C37;}
	.st1{fill:#FFFFFF;}
	.st2{fill:#3F180E;}
	.st3{fill:#694B36;}
</style>
<g>
	<g>
		<g>
			<path class="st2" d="M261.27,89.61c6.38-0.67,12.57-0.44,18.57,0.71c6,1.14,11.63,3.38,16.89,6.73l-0.18,1.43
				c-5.32-3.34-10.99-5.54-17.02-6.59c-6.03-1.05-12.11-1.25-18.26-0.61c-2.9,0.31-5.98,0.87-9.26,1.68
				c-3.28,0.82-6.59,1.83-9.93,3.04c-3.34,1.21-6.63,2.6-9.88,4.19c-3.25,1.58-6.32,3.29-9.22,5.13c-3.78,2.64-7.73,5.79-11.84,9.44
				c-4.11,3.65-8.23,7.68-12.36,12.07c-4.14,4.39-8.2,9.06-12.19,14c-3.99,4.94-7.7,9.98-11.13,15.13c0.12,1.29,0.18,2.64,0.18,4.06
				c0,1.42,0,2.81,0,4.17c0,1.77-0.04,3.57-0.13,5.38c-0.09,1.81-0.19,3.67-0.31,5.57c-0.47,5.73-1.27,11.16-2.39,16.3
				c-1.12,5.14-2.48,9.75-4.08,13.82c-0.83,2.09-1.83,4.28-3.01,6.57c-1.18,2.28-2.59,4.39-4.21,6.34s-3.46,3.58-5.49,4.92
				c-2.04,1.34-4.33,2.14-6.87,2.41c-2.84,0.3-4.86-0.32-6.07-1.84c-1.21-1.53-1.82-3.65-1.82-6.37c0-4.25,0.86-9.03,2.57-14.32
				c1.71-5.29,4.04-10.8,7-16.51c2.95-5.72,6.37-11.53,10.24-17.43c3.87-5.9,7.99-11.66,12.37-17.26c-0.24-1.69-0.47-3.32-0.71-4.89
				c-0.24-1.57-0.53-3.1-0.89-4.61c-4.25,4.23-8.34,8.56-12.27,12.99c-3.93,4.43-7.7,8.9-11.3,13.42c-3.9,4.9-7.8,9.74-11.7,14.52
				c-3.9,4.79-7.92,9.34-12.06,13.68c-4.14,4.33-8.45,8.39-12.94,12.17c-4.49,3.78-9.28,7.15-14.36,10.11
				c-5.09,2.96-10.54,5.42-16.36,7.39c-5.82,1.97-12.13,3.32-18.92,4.03c-6.15,0.65-12.03,0.54-17.64-0.32
				c-5.61-0.86-10.55-2.66-14.8-5.4c-4.25-2.74-7.64-6.51-10.15-11.3c-2.51-4.79-3.77-10.82-3.77-18.08
				c0-6.09,1.01-12.13,3.01-18.13c2.01-6,4.79-11.64,8.33-16.92c3.54-5.28,7.79-10.1,12.72-14.45c4.93-4.36,10.33-7.94,16.18-10.74
				c3.72-1.75,7.27-3.1,10.64-4.04c3.37-0.94,6.88-1.61,10.55-1.99c0.65-0.07,1.27-0.13,1.86-0.2s1.24-0.1,1.95-0.11
				c0.24-0.5,0.52-1.12,0.84-1.87c0.32-0.74,0.72-1.55,1.2-2.43c1.89-3.45,4.18-6.56,6.87-9.32c2.69-2.76,5.67-5.14,8.95-7.14
				c3.28-2,6.79-3.62,10.55-4.88c3.75-1.25,7.63-2.09,11.66-2.51c7.74-0.81,14.96-0.03,21.67,2.33c6.71,2.37,12.6,6.3,17.68,11.79
				c2.6,2.8,4.91,5.99,6.91,9.56s3.69,7.71,5.05,12.41c7.8-6.73,15.91-13.03,24.33-18.91c8.42-5.88,16.74-10.96,24.95-15.25
				c6.09-3.12,12.48-5.86,19.19-8.22C247.37,92.08,254.24,90.47,261.27,89.61z M125.03,182.91c6.8-7.33,14.02-14.83,21.67-22.49
				c7.65-7.66,15.68-15.09,24.07-22.29c-1.36-4.64-3.04-8.79-5.05-12.46c-2.01-3.66-4.28-6.86-6.83-9.61
				c-4.61-5.07-10.1-8.76-16.49-11.08c-6.38-2.31-13.27-3.08-20.65-2.31c-3.49,0.37-6.91,1.14-10.28,2.32
				c-3.37,1.18-6.57,2.77-9.62,4.78c-3.04,2-5.86,4.38-8.47,7.14c-2.6,2.76-4.82,5.88-6.65,9.39l0.09-0.01
				c-0.12,0.37-0.26,0.77-0.44,1.2c-0.18,0.43-0.35,0.84-0.53,1.21c2.78,0.06,5.42,0.26,7.93,0.59c2.51,0.33,4.99,0.79,7.45,1.39
				c2.45,0.6,4.89,1.32,7.31,2.16c2.42,0.84,4.93,1.8,7.53,2.89l-0.35,0.84c-2.72-0.84-5.33-1.58-7.84-2.23
				c-2.51-0.65-5.01-1.16-7.49-1.52c-2.48-0.36-5.02-0.61-7.62-0.75c-2.6-0.14-5.32-0.15-8.15-0.03c-0.42,1.4-0.74,2.81-0.98,4.22
				c-0.24,1.42-0.35,2.92-0.35,4.51c0,2.84,0.53,5.66,1.59,8.47c1.06,2.81,2.54,5.24,4.43,7.29c1.42,1.39,3.07,2.59,4.96,3.6
				c1.89,1.01,3.88,1.82,5.98,2.43c2.09,0.61,4.27,1.02,6.51,1.22c2.24,0.21,4.46,0.2,6.65-0.03c2.3-0.24,4.37-0.56,6.2-0.96
				c1.83-0.4,3.59-0.91,5.28-1.53c1.68-0.62,3.35-1.34,5.01-2.16c1.65-0.83,3.43-1.75,5.32-2.78l0.44,0.75
				c-1.89,1.44-3.7,2.72-5.41,3.85c-1.71,1.13-3.47,2.11-5.27,2.95c-1.8,0.84-3.74,1.55-5.81,2.12c-2.07,0.57-4.43,1-7.09,1.28
				c-4.91,0.52-9.62,0.29-14.14-0.68c-4.52-0.97-8.61-3.1-12.28-6.38c-2.25-2.42-4.03-5.19-5.36-8.3
				c-1.33-3.11-1.99-6.55-1.99-10.34c0-1.54,0.1-3.04,0.31-4.51c0.21-1.47,0.52-2.99,0.93-4.57c-3.9,0.53-7.58,1.32-11.03,2.36
				c-3.46,1.04-7.14,2.57-11.04,4.57c-5.08,2.61-9.88,5.9-14.41,9.89c-4.52,3.99-8.49,8.47-11.92,13.44
				c-3.43,4.97-6.13,10.29-8.11,15.97s-2.97,11.47-2.97,17.37c0,6.03,1.02,11.21,3.06,15.55c2.04,4.34,4.82,7.87,8.33,10.6
				c3.51,2.73,7.59,4.64,12.23,5.72c4.64,1.08,9.58,1.34,14.85,0.79c4.55-0.48,8.92-1.48,13.12-3.02c4.2-1.54,8.23-3.43,12.1-5.7
				c3.87-2.27,7.62-4.85,11.26-7.74c3.64-2.9,7.15-5.95,10.55-9.18c3.4-3.22,6.71-6.56,9.93-10
				C118.72,189.64,121.9,186.25,125.03,182.91z M174.05,164.37c0-1.24,0-2.27,0-3.1c0-0.83-0.06-1.83-0.18-3
				c-3.25,4.95-6.25,9.94-9,14.95c-2.75,5.02-5.13,9.93-7.13,14.75c-2.01,4.82-3.59,9.49-4.74,14.02
				c-1.15,4.52-1.73,8.73-1.73,12.64c0,4.02,1.09,5.91,3.28,5.68c1.48-0.16,2.88-0.82,4.21-2c1.33-1.17,2.54-2.57,3.63-4.19
				c1.09-1.62,2.04-3.27,2.83-4.95c0.8-1.68,1.43-3.13,1.91-4.37c1.59-4.12,2.94-8.7,4.03-13.72c1.09-5.02,1.87-10.3,2.35-15.85
				c0.18-1.91,0.29-3.77,0.35-5.58C173.93,167.86,173.99,166.09,174.05,164.37z M173.34,140.87c0.29,1.51,0.57,3,0.84,4.48
				c0.27,1.48,0.52,3,0.76,4.57c3.66-4.52,7.43-8.94,11.3-13.24c3.87-4.31,7.74-8.36,11.61-12.17c3.87-3.8,7.7-7.31,11.48-10.51
				c3.78-3.2,7.39-6.02,10.81-8.45c-8.45,4.5-16.57,9.75-24.37,15.77C187.96,127.34,180.49,133.85,173.34,140.87z"/>
		</g>
		<g>
			<path class="st2" d="M210.83,11c1.21-0.13,2.13-0.03,2.77,0.29c0.64,0.32,0.96,0.7,0.96,1.12c0,0.57-0.48,1.22-1.43,1.96
				c-0.96,0.74-2.36,1.38-4.2,1.93c-1.99,0.64-4.04,1.16-6.17,1.55c-2.13,0.4-4.01,0.72-5.64,0.97
				c-6.74,4.39-12.75,9.37-18.03,14.92s-10.07,11.39-14.36,17.52c-4.29,6.12-8.17,12.4-11.64,18.82c-3.48,6.43-6.81,12.75-10,18.97
				c-2.84,5.69-5.76,11.34-8.77,16.93c-3.02,5.6-6.12,10.8-9.31,15.6c-3.4,4.75-7.2,9.3-11.38,13.64
				c-4.19,4.34-8.71,8.23-13.56,11.69c-4.86,3.45-9.96,6.33-15.31,8.63c-5.36,2.3-10.87,3.75-16.54,4.35
				c-4.4,0.46-8.76,0.14-13.08-0.97s-8.12-3.26-11.38-6.46c-2.7-2.91-4.72-6.28-6.06-10.11c-1.35-3.83-2.02-7.76-2.02-11.81
				s0.55-8.18,1.65-12.4c1.1-4.23,2.67-8.35,4.73-12.36c2.06-4.01,4.52-7.83,7.39-11.47c2.87-3.63,6.08-6.86,9.63-9.68
				c3.54-2.82,7.36-5.15,11.43-7c4.08-1.84,8.39-3.01,12.92-3.48c4.32-0.45,8.23-0.35,11.7,0.31c3.47,0.66,7.05,2.11,10.74,4.35
				l-0.53,0.9c-2.77-0.91-5.37-1.51-7.82-1.78c-2.45-0.27-4.98-0.27-7.6,0c-6.31,0.66-12.55,2.58-18.72,5.74
				c-6.17,3.17-11.7,7.23-16.59,12.17c-4.89,4.95-8.85,10.54-11.86,16.78c-3.02,6.24-4.52,12.76-4.52,19.56
				c0,3.62,0.59,7.05,1.76,10.3c1.17,3.24,2.96,6.12,5.37,8.63c1.28,1.14,2.73,2.18,4.36,3.1c1.63,0.93,3.35,1.71,5.16,2.33
				c1.81,0.63,3.65,1.05,5.53,1.28c1.88,0.23,3.74,0.25,5.58,0.05c4.4-0.46,8.68-1.92,12.87-4.38c4.18-2.46,8.17-5.41,11.96-8.86
				s7.34-7.13,10.64-11.06c3.3-3.93,6.26-7.59,8.88-10.98c2.05-2.62,4.39-5.92,7.02-9.89c2.62-3.96,5.32-8.11,8.08-12.44
				c4.11-6.39,8.7-13.3,13.77-20.75c5.07-7.44,10.46-14.84,16.17-22.17c5.71-7.34,11.68-14.31,17.92-20.92
				c6.24-6.61,12.66-12.29,19.25-17.02c-3.19,0.48-6.26,0.98-9.2,1.5c-2.94,0.52-5.9,1.17-8.88,1.94c-2.98,0.77-6.06,1.72-9.25,2.83
				c-3.19,1.12-6.63,2.43-10.32,3.96c-2.41,1.1-5,2.42-7.76,3.95c-2.77,1.53-5.55,3.28-8.35,5.24c-2.8,1.96-5.49,4.09-8.08,6.38
				c-2.59,2.29-4.86,4.73-6.81,7.31c-1.95,2.58-3.53,5.3-4.73,8.16c-1.21,2.86-1.81,5.77-1.81,8.75c0,3.4,1.08,6.15,3.24,8.22
				c2.16,2.08,5.19,2.99,9.1,2.71v1.49c-2.2,0.23-4.24,0.04-6.12-0.58c-1.88-0.61-3.51-1.58-4.9-2.89
				c-1.38-1.31-2.46-2.91-3.24-4.82c-0.78-1.9-1.17-4.06-1.17-6.47c0-4.96,1.19-9.65,3.56-14.04c2.38-4.4,5.44-8.43,9.2-12.08
				c3.76-3.66,7.96-6.88,12.61-9.67c4.64-2.79,9.23-5.03,13.77-6.71c5.88-2.18,11.7-3.71,17.44-4.6c5.75-0.89,11.59-1.64,17.55-2.27
				l7.87-0.83c2.06-1.42,4.4-2.69,7.02-3.82C205.9,11.95,208.42,11.26,210.83,11z"/>
		</g>
	</g>
	<g>
		<g>
			<path class="st3" d="M260.12,89.61c6.38-0.67,12.57-0.44,18.57,0.71c6,1.14,11.63,3.38,16.89,6.73l-0.18,1.43
				c-5.32-3.34-10.99-5.54-17.02-6.59c-6.03-1.05-12.11-1.25-18.26-0.61c-2.9,0.31-5.98,0.87-9.26,1.68
				c-3.28,0.82-6.59,1.83-9.93,3.04c-3.34,1.21-6.63,2.6-9.88,4.19c-3.25,1.58-6.32,3.29-9.22,5.13c-3.78,2.64-7.73,5.79-11.84,9.44
				c-4.11,3.65-8.23,7.68-12.36,12.07c-4.14,4.39-8.2,9.06-12.19,14c-3.99,4.94-7.7,9.98-11.13,15.13c0.12,1.29,0.18,2.64,0.18,4.06
				c0,1.42,0,2.81,0,4.17c0,1.77-0.04,3.57-0.13,5.38c-0.09,1.81-0.19,3.67-0.31,5.57c-0.47,5.73-1.27,11.16-2.39,16.3
				c-1.12,5.14-2.48,9.75-4.08,13.82c-0.83,2.09-1.83,4.28-3.01,6.57c-1.18,2.28-2.59,4.39-4.21,6.34s-3.46,3.58-5.49,4.92
				c-2.04,1.34-4.33,2.14-6.87,2.41c-2.84,0.3-4.86-0.32-6.07-1.84c-1.21-1.53-1.82-3.65-1.82-6.37c0-4.25,0.86-9.03,2.57-14.32
				c1.71-5.29,4.04-10.8,7-16.51c2.95-5.72,6.37-11.53,10.24-17.43c3.87-5.9,7.99-11.66,12.37-17.26c-0.24-1.69-0.47-3.32-0.71-4.89
				c-0.24-1.57-0.53-3.1-0.89-4.61c-4.25,4.23-8.34,8.56-12.27,12.99s-7.7,8.9-11.3,13.42c-3.9,4.9-7.8,9.74-11.7,14.52
				c-3.9,4.79-7.92,9.34-12.06,13.68s-8.45,8.39-12.94,12.17c-4.49,3.78-9.28,7.15-14.36,10.11c-5.09,2.96-10.54,5.42-16.36,7.39
				c-5.82,1.97-12.13,3.32-18.92,4.03c-6.15,0.65-12.03,0.54-17.64-0.32c-5.61-0.86-10.55-2.66-14.8-5.4
				c-4.25-2.74-7.64-6.51-10.15-11.3c-2.51-4.79-3.77-10.82-3.77-18.08c0-6.09,1.01-12.13,3.01-18.13c2.01-6,4.79-11.64,8.33-16.92
				c3.54-5.28,7.79-10.1,12.72-14.45c4.93-4.36,10.33-7.94,16.18-10.74c3.72-1.75,7.27-3.1,10.64-4.04
				c3.37-0.94,6.88-1.61,10.55-1.99c0.65-0.07,1.27-0.13,1.86-0.2c0.59-0.06,1.24-0.1,1.95-0.11c0.24-0.5,0.52-1.12,0.84-1.87
				c0.32-0.74,0.72-1.55,1.2-2.43c1.89-3.45,4.18-6.56,6.87-9.32c2.69-2.76,5.67-5.14,8.95-7.14c3.28-2,6.79-3.62,10.55-4.88
				c3.75-1.25,7.63-2.09,11.66-2.51c7.74-0.81,14.96-0.03,21.67,2.33c6.71,2.37,12.6,6.3,17.68,11.79c2.6,2.8,4.91,5.99,6.91,9.56
				c2.01,3.57,3.69,7.71,5.05,12.41c7.8-6.73,15.91-13.03,24.33-18.91c8.42-5.88,16.74-10.96,24.95-15.25
				c6.09-3.12,12.48-5.86,19.19-8.22C246.22,92.08,253.09,90.47,260.12,89.61z M123.89,182.91c6.8-7.33,14.02-14.83,21.67-22.49
				c7.65-7.66,15.68-15.09,24.07-22.29c-1.36-4.64-3.04-8.79-5.05-12.46c-2.01-3.66-4.28-6.86-6.83-9.61
				c-4.61-5.07-10.1-8.76-16.49-11.08c-6.38-2.31-13.27-3.08-20.65-2.31c-3.49,0.37-6.91,1.14-10.28,2.32
				c-3.37,1.18-6.57,2.77-9.62,4.78c-3.04,2-5.86,4.38-8.47,7.14c-2.6,2.76-4.82,5.88-6.65,9.39l0.09-0.01
				c-0.12,0.37-0.26,0.77-0.44,1.2c-0.18,0.43-0.35,0.84-0.53,1.21c2.78,0.06,5.42,0.26,7.93,0.59c2.51,0.33,4.99,0.79,7.45,1.39
				c2.45,0.6,4.89,1.32,7.31,2.16c2.42,0.84,4.93,1.8,7.53,2.89l-0.35,0.84c-2.72-0.84-5.33-1.58-7.84-2.23
				c-2.51-0.65-5.01-1.16-7.49-1.52c-2.48-0.36-5.02-0.61-7.62-0.75c-2.6-0.14-5.32-0.15-8.15-0.03c-0.42,1.4-0.74,2.81-0.98,4.22
				c-0.24,1.42-0.35,2.92-0.35,4.51c0,2.84,0.53,5.66,1.59,8.47c1.06,2.81,2.54,5.24,4.43,7.29c1.42,1.39,3.07,2.59,4.96,3.6
				c1.89,1.01,3.88,1.82,5.98,2.43c2.09,0.61,4.27,1.02,6.51,1.22c2.24,0.21,4.46,0.2,6.65-0.03c2.3-0.24,4.37-0.56,6.2-0.96
				c1.83-0.4,3.59-0.91,5.28-1.53c1.68-0.62,3.35-1.34,5.01-2.16c1.65-0.83,3.43-1.75,5.32-2.78l0.44,0.75
				c-1.89,1.44-3.7,2.72-5.41,3.85c-1.71,1.13-3.47,2.11-5.27,2.95c-1.8,0.84-3.74,1.55-5.81,2.12c-2.07,0.57-4.43,1-7.09,1.28
				c-4.91,0.52-9.62,0.29-14.14-0.68c-4.52-0.97-8.61-3.1-12.28-6.38c-2.25-2.42-4.03-5.19-5.36-8.3
				c-1.33-3.11-1.99-6.55-1.99-10.34c0-1.54,0.1-3.04,0.31-4.51c0.21-1.47,0.52-2.99,0.93-4.57c-3.9,0.53-7.58,1.32-11.03,2.36
				c-3.46,1.04-7.14,2.57-11.04,4.57c-5.08,2.61-9.88,5.9-14.41,9.89c-4.52,3.99-8.49,8.47-11.92,13.44
				c-3.43,4.97-6.13,10.29-8.11,15.97s-2.97,11.47-2.97,17.37c0,6.03,1.02,11.21,3.06,15.55c2.04,4.34,4.82,7.87,8.33,10.6
				c3.51,2.73,7.59,4.64,12.23,5.72c4.64,1.08,9.58,1.34,14.85,0.79c4.55-0.48,8.92-1.48,13.12-3.02c4.2-1.54,8.23-3.43,12.1-5.7
				c3.87-2.27,7.62-4.85,11.26-7.74c3.64-2.9,7.15-5.95,10.55-9.18c3.4-3.22,6.71-6.56,9.93-10
				C117.58,189.64,120.75,186.25,123.89,182.91z M172.9,164.37c0-1.24,0-2.27,0-3.1c0-0.83-0.06-1.83-0.18-3
				c-3.25,4.95-6.25,9.94-9,14.95c-2.75,5.02-5.13,9.93-7.13,14.75c-2.01,4.82-3.59,9.49-4.74,14.02
				c-1.15,4.52-1.73,8.73-1.73,12.64c0,4.02,1.09,5.91,3.28,5.68c1.48-0.16,2.88-0.82,4.21-2c1.33-1.17,2.54-2.57,3.63-4.19
				c1.09-1.62,2.04-3.27,2.83-4.95c0.8-1.68,1.43-3.13,1.91-4.37c1.59-4.12,2.94-8.7,4.03-13.72c1.09-5.02,1.87-10.3,2.35-15.85
				c0.18-1.91,0.29-3.77,0.35-5.58C172.78,167.86,172.84,166.09,172.9,164.37z M172.19,140.87c0.29,1.51,0.57,3,0.84,4.48
				c0.27,1.48,0.52,3,0.76,4.57c3.66-4.52,7.43-8.94,11.3-13.24c3.87-4.31,7.74-8.36,11.61-12.17c3.87-3.8,7.7-7.31,11.48-10.51
				c3.78-3.2,7.39-6.02,10.81-8.45c-8.45,4.5-16.57,9.75-24.37,15.77C186.82,127.34,179.34,133.85,172.19,140.87z"/>
		</g>
		<g>
			<path class="st3" d="M209.68,11c1.21-0.13,2.13-0.03,2.77,0.29c0.64,0.32,0.96,0.7,0.96,1.12c0,0.57-0.48,1.22-1.43,1.96
				c-0.96,0.74-2.36,1.38-4.2,1.93c-1.99,0.64-4.04,1.16-6.17,1.55c-2.13,0.4-4.01,0.72-5.64,0.97
				c-6.74,4.39-12.75,9.37-18.03,14.92s-10.07,11.39-14.36,17.52c-4.29,6.12-8.17,12.4-11.64,18.82c-3.48,6.43-6.81,12.75-10,18.97
				c-2.84,5.69-5.76,11.34-8.77,16.93c-3.02,5.6-6.12,10.8-9.31,15.6c-3.4,4.75-7.2,9.3-11.38,13.64
				c-4.19,4.34-8.71,8.23-13.56,11.69c-4.86,3.45-9.96,6.33-15.31,8.63c-5.36,2.3-10.87,3.75-16.54,4.35
				c-4.4,0.46-8.76,0.14-13.08-0.97s-8.12-3.26-11.38-6.46c-2.7-2.91-4.72-6.28-6.06-10.11c-1.35-3.83-2.02-7.76-2.02-11.81
				s0.55-8.18,1.65-12.4c1.1-4.23,2.67-8.35,4.73-12.36c2.06-4.01,4.52-7.83,7.39-11.47c2.87-3.63,6.08-6.86,9.63-9.68
				c3.54-2.82,7.36-5.15,11.43-7c4.08-1.84,8.39-3.01,12.92-3.48c4.32-0.45,8.23-0.35,11.7,0.31c3.47,0.66,7.05,2.11,10.74,4.35
				l-0.53,0.9c-2.77-0.91-5.37-1.51-7.82-1.78c-2.45-0.27-4.98-0.27-7.6,0c-6.31,0.66-12.55,2.58-18.72,5.74
				c-6.17,3.17-11.7,7.23-16.59,12.17c-4.89,4.95-8.85,10.54-11.86,16.78c-3.02,6.24-4.52,12.76-4.52,19.56
				c0,3.62,0.59,7.05,1.76,10.3c1.17,3.24,2.96,6.12,5.37,8.63c1.28,1.14,2.73,2.18,4.36,3.1c1.63,0.93,3.35,1.71,5.16,2.33
				c1.81,0.63,3.65,1.05,5.53,1.28c1.88,0.23,3.74,0.25,5.58,0.05c4.4-0.46,8.68-1.92,12.87-4.38c4.18-2.46,8.17-5.41,11.96-8.86
				s7.34-7.13,10.64-11.06c3.3-3.93,6.26-7.59,8.88-10.98c2.05-2.62,4.39-5.92,7.02-9.89c2.62-3.96,5.32-8.11,8.08-12.44
				c4.11-6.39,8.7-13.3,13.77-20.75c5.07-7.44,10.46-14.84,16.17-22.17c5.71-7.34,11.68-14.31,17.92-20.92
				c6.24-6.61,12.66-12.29,19.25-17.02c-3.19,0.48-6.26,0.98-9.2,1.5c-2.94,0.52-5.9,1.17-8.88,1.94c-2.98,0.77-6.06,1.72-9.25,2.83
				s-6.63,2.43-10.32,3.96c-2.41,1.1-5,2.42-7.76,3.95c-2.77,1.53-5.55,3.28-8.35,5.24c-2.8,1.96-5.49,4.09-8.08,6.38
				c-2.59,2.29-4.86,4.73-6.81,7.31c-1.95,2.58-3.53,5.3-4.73,8.16c-1.21,2.86-1.81,5.77-1.81,8.75c0,3.4,1.08,6.15,3.24,8.22
				c2.16,2.08,5.19,2.99,9.1,2.71v1.49c-2.2,0.23-4.24,0.04-6.12-0.58c-1.88-0.61-3.51-1.58-4.9-2.89
				c-1.38-1.31-2.46-2.91-3.24-4.82c-0.78-1.9-1.17-4.06-1.17-6.47c0-4.96,1.19-9.65,3.56-14.04c2.38-4.4,5.44-8.43,9.2-12.08
				s7.96-6.88,12.61-9.67c4.64-2.79,9.23-5.03,13.77-6.71c5.88-2.18,11.7-3.71,17.44-4.6c5.75-0.89,11.59-1.64,17.55-2.27l7.87-0.83
				c2.06-1.42,4.4-2.69,7.02-3.82C204.75,11.95,207.27,11.26,209.68,11z"/>
		</g>
	</g>
</g>
</svg>
